<svg width="128" height="128" viewBox="0 0 128 128" fill="none" xmlns="http://www.w3.org/2000/svg">
  <defs>
    <linearGradient id="bagGradient" x1="68" y1="20" x2="68" y2="108" gradientUnits="userSpaceOnUse">
      <stop stop-color="#1f2937"/>
      <stop offset="1" stop-color="#111827"/>
    </linearGradient>
    <linearGradient id="figureGradient" x1="36" y1="58" x2="58" y2="112" gradientUnits="userSpaceOnUse">
      <stop stop-color="#0f172a"/>
      <stop offset="1" stop-color="#020617"/>
    </linearGradient>
  </defs>
  <rect width="128" height="128" rx="24" fill="#020617"/>
  <path d="M80 20c7.6 0 12 5.2 12 11.6 0 4.9-1.6 8.8-4.9 13.8 10.5 4.4 18.9 13.5 18.9 29.6 0 20.6-16.7 37.3-37.3 37.3-20.6 0-37.3-16.7-37.3-37.3 0-12.3 5.6-22.6 14.4-29.3-2.1-3.7-3.4-7.2-3.4-12 0-6.4 4.4-11.6 12-11.6 6 0 9.8 2.6 12.1 6.9C67.7 22.6 72.2 20 80 20Z" fill="url(#bagGradient)"/>
  <path d="M47 36c1.6 0 3 .8 4 2.2l8.8 13.5 13.5-8.1c1.3-.8 2.6-1.2 3.8-1.2 3 0 5.9 2.4 5.9 5.8 0 2.1-1 4.1-3 5.3l-13 7.7 9.2 14.5c.7 1.1 1 2.3 1 3.5 0 3.7-3 6.3-6.2 6.3-2.2 0-4.1-1-5.3-2.9l-8.6-13.2-10.4 6.2 9.2 14.5c.7 1.1 1 2.3 1 3.5 0 3.7-3 6.3-6.2 6.3-2.2 0-4.1-1-5.3-2.9l-10.2-16c-1-1.6-1.4-3.2-1.4-4.7 0-3.1 1.6-5.8 4.4-7.5l12.5-7.4-7.6-11.9c-.7-1.1-1-2.3-1-3.5 0-3.7 3-6.3 6.2-6.3Z" fill="url(#figureGradient)"/>
  <path d="M78.4 86.2c0 3 2.4 5.4 5.4 5.4s5.4-2.4 5.4-5.4-2.4-5.4-5.4-5.4-5.4 2.4-5.4 5.4Z" fill="#1f2937"/>
  <path d="M85.1 98.3c0 3 2.4 5.4 5.4 5.4s5.4-2.4 5.4-5.4-2.4-5.4-5.4-5.4-5.4 2.4-5.4 5.4Z" fill="#1f2937"/>
  <path d="M90.8 109.8c0 2.7 2.1 4.9 4.8 4.9s4.8-2.2 4.8-4.9-2.1-4.9-4.8-4.9-4.8 2.2-4.8 4.9Z" fill="#1f2937"/>
  <path d="M78.6 56.4c3.9.3 6.9 2.2 6.9 6.2 0 3.4-2.1 5.8-5.7 6.7v2.1c0 .9-.7 1.6-1.6 1.6s-1.6-.7-1.6-1.6v-2c-1.5-.1-3-.4-4.4-1-.8-.3-1.2-1.2-.9-2 .3-.8 1.2-1.2 2-1 1.3.5 2.7.8 4 .8 2.5 0 4.2-1.1 4.2-3.1 0-1.9-1.3-3-4.4-3.2-4.2-.3-7-2.3-7-6.3 0-3.3 2.2-5.7 5.6-6.6v-2c0-.9.7-1.6 1.6-1.6s1.6.7 1.6 1.6v1.9c1.2.1 2.5.4 3.7.9.8.3 1.2 1.2 1 2-.3.8-1.2 1.2-2 1-1.1-.4-2.3-.7-3.3-.7-2.5 0-3.9 1.2-3.9 3.1 0 1.9 1.2 2.9 4.4 3.1Z" fill="#f8fafc"/>
</svg>
