<svg width="512" height="512" viewBox="0 0 512 512" fill="none" xmlns="http://www.w3.org/2000/svg">
  <defs>
    <radialGradient id="bg" cx="0" cy="0" r="1" gradientUnits="userSpaceOnUse" gradientTransform="translate(256 256) rotate(90) scale(256)">
      <stop stop-color="#f8fafc"/>
      <stop offset="0.55" stop-color="#d4d4d8"/>
      <stop offset="1" stop-color="#71717a"/>
    </radialGradient>
  </defs>
  <rect width="512" height="512" rx="64" fill="url(#bg)"/>
  <g fill="#f8fafc" stroke="#0f172a" stroke-linecap="round" stroke-linejoin="round" stroke-width="6">
    <path d="M215 320c36-34 57-71 64-130l72 14c-10 78-52 130-94 168l54 80-62 36-50-86c-24 22-54 44-92 68l-34-48c44-25 82-51 142-102Z"/>
    <circle cx="176" cy="214" r="34"/>
    <path d="M148 184c20 10 44 10 64 0l-12-38h-40l-12 38Z"/>
    <path d="M152 212c10 10 32 10 42 0-12-12-30-12-42 0Z"/>
    <path d="M152 238c-6 20-16 38-34 58l46 24c16-16 26-34 30-52l-42-30Z"/>
    <circle cx="332" cy="372" r="30"/>
    <circle cx="368" cy="412" r="30"/>
    <circle cx="404" cy="452" r="28"/>
    <ellipse cx="316" cy="456" rx="58" ry="22"/>
  </g>
  <g fill="#f8fafc" stroke="#0f172a" stroke-linejoin="round" stroke-width="6">
    <path d="M284 72c-26 0-52 10-72 26l-34-30-32 40 32 28c-16 26-26 58-26 98 0 104 74 172 172 172s172-68 172-168c0-92-62-166-152-166h-60Z"/>
    <path d="M356 52h-96l-24 48h144l-24-48Z"/>
  </g>
  <path d="M340 156c14.4 1 24 8 24 22 0 11-6.8 19-18.8 22.2v7c0 4-3.2 7.2-7.2 7.2-4 0-7.2-3.2-7.2-7.2v-6.4c-4.8-.4-9.4-1.4-13.8-3-3.8-1.4-5.6-5.6-4.2-9.2 1.4-3.6 5.4-5.4 9.2-4 3.4 1.2 6.6 2 9.6 2 5.8 0 9.4-2.6 9.4-6.6 0-4-2.6-6.2-9.6-6.6-14.4-1-24-8-24-22 0-10.6 6.4-18 17.6-21v-6.4c0-4 3.2-7.2 7.2-7.2 4 0 7.2 3.2 7.2 7.2v5.8c3.8.4 7.6 1.4 11.2 2.8 3.6 1.4 5.4 5.4 4 9-1.4 3.6-5.4 5.4-9 4-2.8-1-5.6-1.6-8.2-1.6-5.6 0-8.8 2.8-8.8 6.6 0 3.6 2.4 5.6 9.4 6Z" fill="#0f172a"/>
</svg>
